<svg width="24" height="24" viewBox="0 0 24 24" fill="none" xmlns="http://www.w3.org/2000/svg">
    <path d="M18.2241 13.5H15.3761C14.3952 13.5 13.6001 14.3076 13.6001 15.3038V18.1963C13.6001 19.1924 14.3952 20 15.3761 20H18.2241C19.205 20 20.0001 19.1924 20.0001 18.1963V15.3038C20.0001 14.3076 19.205 13.5 18.2241 13.5Z"
          stroke="currentColor" stroke-width="1.5" stroke-miterlimit="10"/>
    <path d="M8.624 4H5.776C4.79514 4 4 4.80757 4 5.80375V8.69625C4 9.69243 4.79514 10.5 5.776 10.5H8.624C9.60486 10.5 10.4 9.69243 10.4 8.69625V5.80375C10.4 4.80757 9.60486 4 8.624 4Z"
          stroke="currentColor" stroke-width="1.5" stroke-miterlimit="10"/>
    <path d="M18.2241 4H15.3761C14.3952 4 13.6001 4.80757 13.6001 5.80375V8.69625C13.6001 9.69243 14.3952 10.5 15.3761 10.5H18.2241C19.205 10.5 20.0001 9.69243 20.0001 8.69625V5.80375C20.0001 4.80757 19.205 4 18.2241 4Z"
          stroke="currentColor" stroke-width="1.5" stroke-miterlimit="10"/>
    <path d="M8.624 13.5H5.776C4.79514 13.5 4 14.3076 4 15.3038V18.1963C4 19.1924 4.79514 20 5.776 20H8.624C9.60486 20 10.4 19.1924 10.4 18.1963V15.3038C10.4 14.3076 9.60486 13.5 8.624 13.5Z"
          stroke="currentColor" stroke-width="1.5" stroke-miterlimit="10"/>
</svg>
