<svg width="24" height="24" viewBox="0 0 24 24" fill="none" xmlns="http://www.w3.org/2000/svg">
<path d="M3.00024 11.9805C3.00024 8.11448 6.13425 4.98047 10.0002 4.98047H14.0002C17.8662 4.98047 21.0002 8.11448 21.0002 11.9805V15.9805C21.0002 17.6373 19.6571 18.9805 18.0002 18.9805H17.8044C16.9743 18.9805 16.1831 18.6281 15.6278 18.0111V18.0111C13.6891 15.857 10.3114 15.857 8.37266 18.0111V18.0111C7.81734 18.6281 7.02623 18.9805 6.19611 18.9805H6.00024C4.34339 18.9805 3.00024 17.6373 3.00024 15.9805V11.9805Z" stroke="currentColor" stroke-width="1.5"/>
<path d="M8.12158 8.98047V13.2231M10.2429 11.1018H6.00026" stroke="currentColor" stroke-width="1.33" stroke-linecap="round" stroke-linejoin="round"/>
<path d="M15.3339 9.46069C15.3339 10.013 14.8862 10.4607 14.3339 10.4607C13.7816 10.4607 13.3339 10.013 13.3339 9.46069C13.3339 8.90841 13.7816 8.46069 14.3339 8.46069C14.8862 8.46069 15.3339 8.90841 15.3339 9.46069Z" fill="currentColor"/>
<path d="M17.3029 11.7429C17.8552 11.7429 18.3029 12.1907 18.3029 12.7429C18.3029 13.2952 17.8552 13.7429 17.3029 13.7429C16.7506 13.7429 16.3029 13.2952 16.3029 12.7429C16.3029 12.1907 16.7506 11.7429 17.3029 11.7429Z" fill="currentColor"/>
</svg>
