<svg xmlns="http://www.w3.org/2000/svg" xmlns:xlink="http://www.w3.org/1999/xlink" viewBox="0 0 48 48" width="48" height="48" preserveAspectRatio="xMidYMid meet" style="width: 100%; height: 100%; transform: translate3d(0px, 0px, 0px); content-visibility: visible;"><defs><clipPath id="__lottie_element_949"><rect width="48" height="48" x="0" y="0"></rect></clipPath></defs><g clip-path="url(#__lottie_element_949)"><g transform="matrix(1.0000041723251343,0,0,1.0000041723251343,-0.00010004639625549316,-0.00010004639625549316)" opacity="1" style="display: block;"><g opacity="1" transform="matrix(1,0,0,1,19.323999404907227,29.634000778198242)"><path fill="rgb(0,136,204)" fill-opacity="1" d=" M-1.5,-4.486000061035156 C-1.5,-4.486000061035156 -1.5,4.486000061035156 -1.5,4.486000061035156 C-1.5,4.486000061035156 1.5,4.486000061035156 1.5,4.486000061035156 C1.5,4.486000061035156 1.5,-4.486000061035156 1.5,-4.486000061035156 C1.5,-4.486000061035156 -1.5,-4.486000061035156 -1.5,-4.486000061035156z"></path></g><g opacity="1" transform="matrix(1,0,0,1,9.767999649047852,24.323999404907227)"><path fill="rgb(0,136,204)" fill-opacity="1" d=" M1.5,16.823999404907227 C1.5,16.823999404907227 1.5,1.8949999809265137 1.5,1.8949999809265137 C1.5,1.8949999809265137 -1.5,1.8949999809265137 -1.5,1.8949999809265137 C-1.5,1.8949999809265137 -1.5,16.823999404907227 -1.5,16.823999404907227 C-1.5,16.823999404907227 1.5,16.823999404907227 1.5,16.823999404907227z M-1.5,-2.328000068664551 C-1.5,-2.328000068664551 -1.5,16.823999404907227 -1.5,16.823999404907227 C-1.5,16.823999404907227 1.5,16.823999404907227 1.5,16.823999404907227 C1.5,16.823999404907227 1.5,-2.328000068664551 1.5,-2.328000068664551 C1.5,-2.328000068664551 -1.5,-2.328000068664551 -1.5,-2.328000068664551z M-1.5,-16.823999404907227 C-1.5,-16.823999404907227 -1.5,-2.328000068664551 -1.5,-2.328000068664551 C-1.5,-2.328000068664551 1.5,-2.328000068664551 1.5,-2.328000068664551 C1.5,-2.328000068664551 1.5,-16.823999404907227 1.5,-16.823999404907227 C1.5,-16.823999404907227 -1.5,-16.823999404907227 -1.5,-16.823999404907227z M1.5,1.8949999809265137 C1.5,1.0670000314712524 0.828000009059906,0.39500001072883606 0,0.39500001072883606 C-0.828000009059906,0.39500001072883606 -1.5,1.0670000314712524 -1.5,1.8949999809265137 C-1.5,1.8949999809265137 1.5,1.8949999809265137 1.5,1.8949999809265137z M-1.5,16.823999404907227 C-1.5,17.652000427246094 -0.828000009059906,18.323999404907227 0,18.323999404907227 C0.828000009059906,18.323999404907227 1.5,17.652000427246094 1.5,16.823999404907227 C1.5,16.823999404907227 -1.5,16.823999404907227 -1.5,16.823999404907227z M1.5,-16.823999404907227 C1.5,-17.652000427246094 0.828000009059906,-18.323999404907227 0,-18.323999404907227 C-0.828000009059906,-18.323999404907227 -1.5,-17.652000427246094 -1.5,-16.823999404907227 C-1.5,-16.823999404907227 1.5,-16.823999404907227 1.5,-16.823999404907227z"></path></g><g opacity="1" transform="matrix(1,0,0,1,38.46699905395508,24.243999481201172)"><path fill="rgb(0,136,204)" fill-opacity="1" d=" M1.5,16.743999481201172 C1.5,16.743999481201172 1.5,1.975000023841858 1.5,1.975000023841858 C1.5,1.975000023841858 -1.5,1.975000023841858 -1.5,1.975000023841858 C-1.5,1.975000023841858 -1.5,16.743999481201172 -1.5,16.743999481201172 C-1.5,16.743999481201172 1.5,16.743999481201172 1.5,16.743999481201172z M-1.5,-2.249000072479248 C-1.5,-2.249000072479248 -1.5,16.743999481201172 -1.5,16.743999481201172 C-1.5,16.743999481201172 1.5,16.743999481201172 1.5,16.743999481201172 C1.5,16.743999481201172 1.5,-2.249000072479248 1.5,-2.249000072479248 C1.5,-2.249000072479248 -1.5,-2.249000072479248 -1.5,-2.249000072479248z M-1.5,-16.743999481201172 C-1.5,-16.743999481201172 -1.5,-2.249000072479248 -1.5,-2.249000072479248 C-1.5,-2.249000072479248 1.5,-2.249000072479248 1.5,-2.249000072479248 C1.5,-2.249000072479248 1.5,-16.743999481201172 1.5,-16.743999481201172 C1.5,-16.743999481201172 -1.5,-16.743999481201172 -1.5,-16.743999481201172z M1.5,1.975000023841858 C1.5,1.1469999551773071 0.828000009059906,0.4749999940395355 0,0.4749999940395355 C-0.828000009059906,0.4749999940395355 -1.5,1.1469999551773071 -1.5,1.975000023841858 C-1.5,1.975000023841858 1.5,1.975000023841858 1.5,1.975000023841858z M-1.5,16.743999481201172 C-1.5,17.57200050354004 -0.828000009059906,18.243999481201172 0,18.243999481201172 C0.828000009059906,18.243999481201172 1.5,17.57200050354004 1.5,16.743999481201172 C1.5,16.743999481201172 -1.5,16.743999481201172 -1.5,16.743999481201172z M1.5,-16.743999481201172 C1.5,-17.57200050354004 0.828000009059906,-18.243999481201172 0,-18.243999481201172 C-0.828000009059906,-18.243999481201172 -1.5,-17.57200050354004 -1.5,-16.743999481201172 C-1.5,-16.743999481201172 1.5,-16.743999481201172 1.5,-16.743999481201172z"></path></g><g opacity="1" transform="matrix(1,0,0,1,28.898000717163086,29.634000778198242)"><path fill="rgb(0,136,204)" fill-opacity="1" d=" M-1.5,-4.486000061035156 C-1.5,-4.486000061035156 -1.5,4.486000061035156 -1.5,4.486000061035156 C-1.5,4.486000061035156 1.5,4.486000061035156 1.5,4.486000061035156 C1.5,4.486000061035156 1.5,-4.486000061035156 1.5,-4.486000061035156 C1.5,-4.486000061035156 -1.5,-4.486000061035156 -1.5,-4.486000061035156z"></path></g></g><g transform="matrix(1.0000041723251343,0,0,1.0000041723251343,24,24)" opacity="1" style="display: block;"><g opacity="1" transform="matrix(1,0,0,1,0,0)"><path stroke-linecap="round" stroke-linejoin="miter" fill-opacity="0" stroke-miterlimit="4" stroke="rgb(0,136,204)" stroke-opacity="1" stroke-width="3" d=" M-17.6560001373291,10 C-17.6560001373291,10 -6.363999843597412,10 -0.03099999949336052,10 C6.308000087738037,10 17.766000747680664,10 17.766000747680664,10"></path></g><g opacity="1" transform="matrix(1,0,0,1,0,0)"><path stroke-linecap="round" stroke-linejoin="miter" fill-opacity="0" stroke-miterlimit="4" stroke="rgb(0,136,204)" stroke-opacity="1" stroke-width="3" d=" M-14.218999862670898,-12.75 C-14.218999862670898,-12.75 -13.125,2.25 0.125,2.125 C13.375,2 14.437999725341797,-13 14.437999725341797,-13"></path></g></g></g></svg>