<svg xmlns="http://www.w3.org/2000/svg" xmlns:xlink="http://www.w3.org/1999/xlink" viewBox="0 0 48 48" width="48" height="48" preserveAspectRatio="xMidYMid meet" style="width: 100%; height: 100%; transform: translate3d(0px, 0px, 0px); content-visibility: visible;"><defs><clipPath id="__lottie_element_497"><rect width="48" height="48" x="0" y="0"></rect></clipPath><clipPath id="__lottie_element_499"><path d="M0,0 L24,0 L24,24 L0,24z"></path></clipPath></defs><g clip-path="url(#__lottie_element_497)"><g clip-path="url(#__lottie_element_499)" transform="matrix(2,0,0,2,0,0)" opacity="1" style="display: block;"><g transform="matrix(0.9999983906745911,0,0,0.9999983906745911,1.0000172853469849,3.0000147819519043)" opacity="1" style="display: block;"><g opacity="1" transform="matrix(1,0,0,1,4,3)"><path stroke-linecap="round" stroke-linejoin="round" fill-opacity="0" stroke="rgb(0,136,204)" stroke-opacity="1" stroke-width="1.5" d=" M0,2 C1.1050000190734863,2 2,1.1050000190734863 2,0 C2,-1.1050000190734863 1.1050000190734863,-2 0,-2 C-1.1050000190734863,-2 -2,-1.1050000190734863 -2,0 C-2,1.1050000190734863 -1.1050000190734863,2 0,2z"></path></g><g opacity="1" transform="matrix(1,0,0,1,18,15)"><path stroke-linecap="round" stroke-linejoin="round" fill-opacity="0" stroke="rgb(0,136,204)" stroke-opacity="1" stroke-width="1.5" d=" M0,2 C1.1050000190734863,2 2,1.1050000190734863 2,0 C2,-1.1050000190734863 1.1050000190734863,-2 0,-2 C-1.1050000190734863,-2 -2,-1.1050000190734863 -2,0 C-2,1.1050000190734863 -1.1050000190734863,2 0,2z"></path></g><g opacity="1" transform="matrix(1,0,0,1,12.5,6)"><path stroke-linecap="round" stroke-linejoin="round" fill-opacity="0" stroke="rgb(0,136,204)" stroke-opacity="1" stroke-width="1.5" d=" M-6.5,-3 C-6.5,-3 3.5,-3 3.5,-3 C5.1570000648498535,-3 6.5,-1.656999945640564 6.5,0 C6.5,0 6.5,3 6.5,3"></path></g><g opacity="1" transform="matrix(1,0,0,1,9.5,12)"><path stroke-linecap="round" stroke-linejoin="round" fill-opacity="0" stroke="rgb(0,136,204)" stroke-opacity="1" stroke-width="1.5" d=" M6.5,3 C6.5,3 -3.5,3 -3.5,3 C-5.1570000648498535,3 -6.5,1.656999945640564 -6.5,0 C-6.5,0 -6.5,-3 -6.5,-3"></path></g><g opacity="1" transform="matrix(1,0,0,1,2.990000009536743,9.819999694824219)"><path stroke-linecap="round" stroke-linejoin="round" fill-opacity="0" stroke="rgb(0,136,204)" stroke-opacity="1" stroke-width="1.5" d=" M1.9900000095367432,1.2200000286102295 C1.9900000095367432,1.2200000286102295 0,-1.2200000286102295 0,-1.2200000286102295 C0,-1.2200000286102295 -1.9900000095367432,1.2200000286102295 -1.9900000095367432,1.2200000286102295"></path></g><g opacity="1" transform="matrix(1,0,0,1,18.989999771118164,8.220000267028809)"><path stroke-linecap="round" stroke-linejoin="round" fill-opacity="0" stroke="rgb(0,136,204)" stroke-opacity="1" stroke-width="1.5" d=" M-1.9900000095367432,-1.2200000286102295 C-1.9900000095367432,-1.2200000286102295 0,1.2200000286102295 0,1.2200000286102295 C0,1.2200000286102295 1.9900000095367432,-1.2200000286102295 1.9900000095367432,-1.2200000286102295"></path></g></g></g></g></svg>