<svg xmlns="http://www.w3.org/2000/svg" xmlns:xlink="http://www.w3.org/1999/xlink" viewBox="0 0 24 24" width="24" height="24" preserveAspectRatio="xMidYMid meet" style="width: 100%; height: 100%; transform: translate3d(0px, 0px, 0px); content-visibility: visible;"><defs><clipPath id="__lottie_element_918"><rect width="24" height="24" x="0" y="0"></rect></clipPath></defs><g clip-path="url(#__lottie_element_918)"><g transform="matrix(1.0000014305114746,0,0,1.0000014305114746,-0.00001761317253112793,-0.00001761317253112793)" opacity="1" style="display: block;"><g opacity="1" transform="matrix(1,0,0,1,12,12)"><path fill="rgb(0,151,234)" fill-opacity="1" d=" M0,-8.25 C4.556000232696533,-8.25 8.25,-4.556000232696533 8.25,0 C8.25,0 9.75,0 9.75,0 C9.75,-5.385000228881836 5.385000228881836,-9.75 0,-9.75 C0,-9.75 0,-8.25 0,-8.25z M-8.25,0 C-8.25,-4.556000232696533 -4.556000232696533,-8.25 0,-8.25 C0,-8.25 0,-9.75 0,-9.75 C-5.385000228881836,-9.75 -9.75,-5.385000228881836 -9.75,0 C-9.75,0 -8.25,0 -8.25,0z M0,8.25 C-4.556000232696533,8.25 -8.25,4.556000232696533 -8.25,0 C-8.25,0 -9.75,0 -9.75,0 C-9.75,5.385000228881836 -5.385000228881836,9.75 0,9.75 C0,9.75 0,8.25 0,8.25z M8.25,0 C8.25,4.556000232696533 4.556000232696533,8.25 0,8.25 C0,8.25 0,9.75 0,9.75 C5.385000228881836,9.75 9.75,5.385000228881836 9.75,0 C9.75,0 8.25,0 8.25,0z"></path></g></g><g transform="matrix(1.0000014305114746,0,0,1.0000014305114746,-0.00001761317253112793,-0.00001761317253112793)" opacity="1" style="display: block;"><g opacity="1" transform="matrix(1,0,0,1,11.96399974822998,12.041000366210938)"><path fill="rgb(0,151,234)" fill-opacity="1" d=" M-0.7429999709129333,3.9119999408721924 C-0.7429999709129333,3.9119999408721924 -0.7429999709129333,5.124000072479248 -0.7429999709129333,5.124000072479248 C-0.7429999709129333,5.124000072479248 0.7570000290870667,5.124000072479248 0.7570000290870667,5.124000072479248 C0.7570000290870667,5.124000072479248 0.7570000290870667,3.9119999408721924 0.7570000290870667,3.9119999408721924 C0.7570000290870667,3.9119999408721924 -0.7429999709129333,3.9119999408721924 -0.7429999709129333,3.9119999408721924z M-0.012000000104308128,3.1619999408721924 C-0.04899999871850014,3.1630001068115234 -0.0860000029206276,3.1640000343322754 -0.12399999797344208,3.1640000343322754 C-0.12399999797344208,3.1640000343322754 -0.12399999797344208,4.664000034332275 -0.12399999797344208,4.664000034332275 C-0.07400000095367432,4.664000034332275 -0.024000000208616257,4.663000106811523 0.02500000037252903,4.6620001792907715 C0.02500000037252903,4.6620001792907715 -0.012000000104308128,3.1619999408721924 -0.012000000104308128,3.1619999408721924z M1.906000018119812,2.058000087738037 C1.906000018119812,2.430000066757202 1.50600004196167,3.1619999408721924 0.007000000216066837,3.1619999408721924 C0.007000000216066837,3.1619999408721924 0.007000000216066837,4.6620001792907715 0.007000000216066837,4.6620001792907715 C1.940999984741211,4.6620001792907715 3.4059998989105225,3.6029999256134033 3.4059998989105225,2.058000087738037 C3.4059998989105225,2.058000087738037 1.906000018119812,2.058000087738037 1.906000018119812,2.058000087738037z M-0.7429999709129333,-5.124000072479248 C-0.7429999709129333,-5.124000072479248 -0.7429999709129333,-3.9079999923706055 -0.7429999709129333,-3.9079999923706055 C-0.7429999709129333,-3.9079999923706055 0.7570000290870667,-3.9079999923706055 0.7570000290870667,-3.9079999923706055 C0.7570000290870667,-3.9079999923706055 0.7570000290870667,-5.124000072479248 0.7570000290870667,-5.124000072479248 C0.7570000290870667,-5.124000072479248 -0.7429999709129333,-5.124000072479248 -0.7429999709129333,-5.124000072479248z M0.028999999165534973,-4.6570000648498535 C0.023000000044703484,-4.6570000648498535 0.017000000923871994,-4.6579999923706055 0.004999999888241291,-4.6579999923706055 C-0.004999999888241291,-4.6579999923706055 -0.019999999552965164,-4.659999847412109 -0.035999998450279236,-4.659999847412109 C-0.06800000369548798,-4.660999774932861 -0.11400000005960464,-4.660999774932861 -0.16699999570846558,-4.6579999923706055 C-0.16699999570846558,-4.6579999923706055 -0.07999999821186066,-3.1610000133514404 -0.07999999821186066,-3.1610000133514404 C-0.08900000154972076,-3.1600000858306885 -0.09200000017881393,-3.1600000858306885 -0.07999999821186066,-3.1600000858306885 C-0.07400000095367432,-3.1600000858306885 -0.06700000166893005,-3.1589999198913574 -0.0560000017285347,-3.1589999198913574 C-0.04600000008940697,-3.1589999198913574 -0.03099999949336052,-3.1579999923706055 -0.014999999664723873,-3.1579999923706055 C-0.014999999664723873,-3.1579999923706055 0.028999999165534973,-4.6570000648498535 0.028999999165534973,-4.6570000648498535z M3.2690000534057617,-2.4739999771118164 C3.065000057220459,-3.318000078201294 2.0989999771118164,-4.5970001220703125 0.028999999165534973,-4.6570000648498535 C0.028999999165534973,-4.6570000648498535 -0.014999999664723873,-3.1579999923706055 -0.014999999664723873,-3.1579999923706055 C1.3609999418258667,-3.118000030517578 1.7610000371932983,-2.325000047683716 1.8109999895095825,-2.121000051498413 C1.8109999895095825,-2.121000051498413 3.2690000534057617,-2.4739999771118164 3.2690000534057617,-2.4739999771118164z M-0.12399999797344208,3.1640000343322754 C-1.069000005722046,3.1640000343322754 -1.6950000524520874,2.428999900817871 -1.8769999742507935,2.056999921798706 C-1.8769999742507935,2.056999921798706 -3.2239999771118164,2.7160000801086426 -3.2239999771118164,2.7160000801086426 C-2.9079999923706055,3.361999988555908 -1.8669999837875366,4.664000034332275 -0.12399999797344208,4.664000034332275 C-0.12399999797344208,4.664000034332275 -0.12399999797344208,3.1640000343322754 -0.12399999797344208,3.1640000343322754z M-0.25200000405311584,0.6480000019073486 C0.7770000100135803,0.8259999752044678 1.312999963760376,1.0470000505447388 1.5889999866485596,1.2690000534057617 C1.8020000457763672,1.440999984741211 1.906000018119812,1.6469999551773071 1.906000018119812,2.058000087738037 C1.906000018119812,2.058000087738037 3.4059998989105225,2.058000087738037 3.4059998989105225,2.058000087738037 C3.4059998989105225,1.3079999685287476 3.177000045776367,0.621999979019165 2.5290000438690186,0.10100000351667404 C1.9429999589920044,-0.3700000047683716 1.0889999866485596,-0.6420000195503235 0.004000000189989805,-0.8299999833106995 C0.004000000189989805,-0.8299999833106995 -0.25200000405311584,0.6480000019073486 -0.25200000405311584,0.6480000019073486z M-3.119999885559082,-1.9730000495910645 C-3.119999885559082,-1.8070000410079956 -3.124000072479248,-1.2339999675750732 -2.703000068664551,-0.6460000276565552 C-2.2769999504089355,-0.050999999046325684 -1.5119999647140503,0.4300000071525574 -0.25200000405311584,0.6480000019073486 C-0.25200000405311584,0.6480000019073486 0.004000000189989805,-0.8299999833106995 0.004000000189989805,-0.8299999833106995 C-0.9929999709129333,-1.0019999742507935 -1.3519999980926514,-1.3350000381469727 -1.4839999675750732,-1.5199999809265137 C-1.621999979019165,-1.7120000123977661 -1.6200000047683716,-1.8849999904632568 -1.6200000047683716,-1.9730000495910645 C-1.6200000047683716,-1.9730000495910645 -3.119999885559082,-1.9730000495910645 -3.119999885559082,-1.9730000495910645z M-0.16699999570846558,-4.6579999923706055 C-1.4769999980926514,-4.581999778747559 -2.2780001163482666,-4.066999912261963 -2.7130000591278076,-3.3959999084472656 C-3.118000030517578,-2.7699999809265137 -3.119999885559082,-2.134000062942505 -3.119999885559082,-1.9730000495910645 C-3.119999885559082,-1.9730000495910645 -1.6200000047683716,-1.9730000495910645 -1.6200000047683716,-1.9730000495910645 C-1.6200000047683716,-2.066999912261963 -1.6139999628067017,-2.3329999446868896 -1.4539999961853027,-2.5799999237060547 C-1.3240000009536743,-2.7809998989105225 -1.0010000467300415,-3.1070001125335693 -0.07999999821186066,-3.1610000133514404 C-0.07999999821186066,-3.1610000133514404 -0.16699999570846558,-4.6579999923706055 -0.16699999570846558,-4.6579999923706055z M-0.7429999709129333,5.124000072479248 C-0.7429999709129333,5.538000106811523 -0.40700000524520874,5.874000072479248 0.007000000216066837,5.874000072479248 C0.42100000381469727,5.874000072479248 0.7570000290870667,5.538000106811523 0.7570000290870667,5.124000072479248 C0.7570000290870667,5.124000072479248 -0.7429999709129333,5.124000072479248 -0.7429999709129333,5.124000072479248z M0.007000000216066837,3.9119999408721924 C0.007000000216066837,3.9119999408721924 0.007000000216066837,3.1619999408721924 0.007000000216066837,3.1619999408721924 C0.0010000000474974513,3.1619999408721924 -0.006000000052154064,3.1619999408721924 -0.012000000104308128,3.1619999408721924 C-0.012000000104308128,3.1619999408721924 0.007000000216066837,3.9119999408721924 0.007000000216066837,3.9119999408721924z M0.7570000290870667,-5.124000072479248 C0.7570000290870667,-5.538000106811523 0.42100000381469727,-5.874000072479248 0.007000000216066837,-5.874000072479248 C-0.40700000524520874,-5.874000072479248 -0.7429999709129333,-5.538000106811523 -0.7429999709129333,-5.124000072479248 C-0.7429999709129333,-5.124000072479248 0.7570000290870667,-5.124000072479248 0.7570000290870667,-5.124000072479248z M-1.8769999742507935,2.056999921798706 C-2.059000015258789,1.684999942779541 -2.507999897003174,1.531000018119812 -2.880000114440918,1.7130000591278076 C-3.252000093460083,1.8949999809265137 -3.4059998989105225,2.3440001010894775 -3.2239999771118164,2.7160000801086426 C-3.2239999771118164,2.7160000801086426 -1.8769999742507935,2.056999921798706 -1.8769999742507935,2.056999921798706z M-0.12399999797344208,-0.09099999815225601 C-0.12399999797344208,-0.09099999815225601 -0.25200000405311584,0.6480000019073486 -0.25200000405311584,0.6480000019073486 C-0.25200000405311584,0.6480000019073486 -0.12399999797344208,-0.09099999815225601 -0.12399999797344208,-0.09099999815225601z M-0.12399999797344208,-3.9089999198913574 C-0.12399999797344208,-3.9089999198913574 -0.07999999821186066,-3.1610000133514404 -0.07999999821186066,-3.1610000133514404 C-0.07999999821186066,-3.1610000133514404 -0.12399999797344208,-3.9089999198913574 -0.12399999797344208,-3.9089999198913574z M1.8109999895095825,-2.121000051498413 C1.9079999923706055,-1.718000054359436 2.313999891281128,-1.4709999561309814 2.7170000076293945,-1.5679999589920044 C3.119999885559082,-1.6649999618530273 3.365999937057495,-2.071000099182129 3.2690000534057617,-2.4739999771118164 C3.2690000534057617,-2.4739999771118164 1.8109999895095825,-2.121000051498413 1.8109999895095825,-2.121000051498413z"></path></g></g></g></svg>