<svg xmlns="http://www.w3.org/2000/svg" xmlns:xlink="http://www.w3.org/1999/xlink" viewBox="0 0 24 24" width="24" height="24" preserveAspectRatio="xMidYMid meet" style="width: 100%; height: 100%; transform: translate3d(0px, 0px, 0px); content-visibility: visible;"><defs><clipPath id="__lottie_element_539"><rect width="24" height="24" x="0" y="0"></rect></clipPath></defs><g clip-path="url(#__lottie_element_539)"><g transform="matrix(0.9589151740074158,0,0,0.9589151740074158,12,12)" opacity="1" style="display: block;"><g opacity="1" transform="matrix(1,0,0,1,0,0)"></g><g opacity="1" transform="matrix(1,0,0,1,0,0)"></g><g opacity="1" transform="matrix(1,0,0,1,0,0)"></g><g opacity="1" transform="matrix(1,0,0,1,0,0)"></g><g opacity="1" transform="matrix(1,0,0,1,0,0)"></g><g opacity="1" transform="matrix(1,0,0,1,0,0)"></g><g opacity="1" transform="matrix(1,0,0,1,0,0)"></g><g opacity="1" transform="matrix(1,0,0,1,0,0)"></g><g opacity="1" transform="matrix(1,0,0,1,0,0)"></g><g opacity="1" transform="matrix(1,0,0,1,0,0)"></g><g opacity="1" transform="matrix(1,0,0,1,0,0)"></g><g opacity="1" transform="matrix(1,0,0,1,0,0)"></g><g opacity="1" transform="matrix(1,0,0,1,0,0)"></g><g opacity="1" transform="matrix(1,0,0,1,0,0)"></g><g opacity="1" transform="matrix(1,0,0,1,0,0)"></g><g opacity="1" transform="matrix(1,0,0,1,0,0)"></g><g opacity="1" transform="matrix(1,0,0,1,0,0)"></g><g opacity="1" transform="matrix(1,0,0,1,0,0)"></g><g opacity="1" transform="matrix(1,0,0,1,0,0)"></g><g opacity="1" transform="matrix(1,0,0,1,0,0)"></g><g opacity="1" transform="matrix(1,0,0,1,0,0)"></g><g opacity="0.043430861542455686" transform="matrix(0.7027244567871094,0.7114620804786682,-0.7114620804786682,0.7027244567871094,0,0)"><path stroke-linecap="round" stroke-linejoin="miter" fill-opacity="0" stroke-miterlimit="4" stroke="rgb(0,151,234)" stroke-opacity="1" stroke-width="1.7" d=" M0,-8.968999862670898 C0,-8.968999862670898 0,-5.656000137329102 0,-5.656000137329102"></path></g><g opacity="0.1640900815541761" transform="matrix(0.0030543215107172728,0.9999953508377075,-0.9999953508377075,0.0030543215107172728,0,0)"><path stroke-linecap="round" stroke-linejoin="miter" fill-opacity="0" stroke-miterlimit="4" stroke="rgb(0,151,234)" stroke-opacity="1" stroke-width="1.7" d=" M0,-8.968999862670898 C0,-8.968999862670898 0,-5.656000137329102 0,-5.656000137329102"></path></g><g opacity="0.33484599493148937" transform="matrix(-0.7064400315284729,0.7077729105949402,-0.7077729105949402,-0.7064400315284729,0,0)"><path stroke-linecap="round" stroke-linejoin="miter" fill-opacity="0" stroke-miterlimit="4" stroke="rgb(0,151,234)" stroke-opacity="1" stroke-width="1.7" d=" M0,-8.968999862670898 C0,-8.968999862670898 0,-5.656000137329102 0,-5.656000137329102"></path></g><g opacity="0.5286974430922899" transform="matrix(-0.9999982118606567,0.0018849545158445835,-0.0018849545158445835,-0.9999982118606567,0,0)"><path stroke-linecap="round" stroke-linejoin="miter" fill-opacity="0" stroke-miterlimit="4" stroke="rgb(0,151,234)" stroke-opacity="1" stroke-width="1.7" d=" M0,-8.968999862670898 C0,-8.968999862670898 0,-5.656000137329102 0,-5.656000137329102"></path></g><g opacity="0.7186235034134372" transform="matrix(-0.7135562300682068,-0.7005980014801025,0.7005980014801025,-0.7135562300682068,0,0)"><path stroke-linecap="round" stroke-linejoin="miter" fill-opacity="0" stroke-miterlimit="4" stroke="rgb(0,151,234)" stroke-opacity="1" stroke-width="1.7" d=" M0,-8.968999862670898 C0,-8.968999862670898 0,-5.656000137329102 0,-5.656000137329102"></path></g><g opacity="0.87761413726245" transform="matrix(0.002007127273827791,-0.9999979734420776,0.9999979734420776,0.002007127273827791,0,0)"><path stroke-linecap="round" stroke-linejoin="miter" fill-opacity="0" stroke-miterlimit="4" stroke="rgb(0,151,234)" stroke-opacity="1" stroke-width="1.7" d=" M0,-8.968999862670898 C0,-8.968999862670898 0,-5.656000137329102 0,-5.656000137329102"></path></g><g opacity="0.97848238802982" transform="matrix(0.7046837210655212,-0.7095215320587158,0.7095215320587158,0.7046837210655212,0,0)"><path stroke-linecap="round" stroke-linejoin="miter" fill-opacity="0" stroke-miterlimit="4" stroke="rgb(0,151,234)" stroke-opacity="1" stroke-width="1.7" d=" M0,-8.968999862670898 C0,-8.968999862670898 0,-5.656000137329102 0,-5.656000137329102"></path></g><g opacity="1" transform="matrix(1,0,0,1,0,0)"><path stroke-linecap="round" stroke-linejoin="miter" fill-opacity="0" stroke-miterlimit="4" stroke="rgb(0,151,234)" stroke-opacity="1" stroke-width="1.7" d=" M0,-8.968999862670898 C0,-8.968999862670898 0,-5.656000137329102 0,-5.656000137329102"></path></g></g></g></svg>