<svg xmlns="http://www.w3.org/2000/svg" xmlns:xlink="http://www.w3.org/1999/xlink" viewBox="0 0 48 48" width="48" height="48" preserveAspectRatio="xMidYMid meet" style="width: 100%; height: 100%; transform: translate3d(0px, 0px, 0px); content-visibility: visible;"><defs><clipPath id="__lottie_element_933"><rect width="48" height="48" x="0" y="0"></rect></clipPath><clipPath id="__lottie_element_935"><path d="M0,0 L24,0 L24,24 L0,24z"></path></clipPath></defs><g clip-path="url(#__lottie_element_933)"><g clip-path="url(#__lottie_element_935)" transform="matrix(2,0,0,2,0,0)" opacity="1" style="display: block;"><g transform="matrix(0.9999998211860657,0,0,0.9999998211860657,0.000002287466031702934,0.000002287466031702934)" opacity="1" style="display: block;"><g opacity="1" transform="matrix(1,0,0,1,12,12)"><path stroke-linecap="round" stroke-linejoin="round" fill-opacity="0" stroke="rgb(0,136,204)" stroke-opacity="1" stroke-width="1.5" d=" M-4,-0.23399999737739563 C-4,-0.23399999737739563 -1.1979999542236328,3 -1.1979999542236328,3 C-1.1979999542236328,3 4,-3 4,-3"></path></g><g opacity="1" transform="matrix(1,0,0,1,12,12)"><path stroke-linecap="round" stroke-linejoin="round" fill-opacity="0" stroke="rgb(0,136,204)" stroke-opacity="1" stroke-width="1.5" d=" M0,9 C4.9710001945495605,9 9,4.9710001945495605 9,0 C9,-4.9710001945495605 4.9710001945495605,-9 0,-9 C-4.9710001945495605,-9 -9,-4.9710001945495605 -9,0 C-9,4.9710001945495605 -4.9710001945495605,9 0,9z"></path></g></g></g></g></svg>