 <svg xmlns="http://www.w3.org/2000/svg" xmlns:xlink="http://www.w3.org/1999/xlink"
                                viewBox="0 0 48 48" width="48" height="48" preserveAspectRatio="xMidYMid meet"
                                style="width: 100%; height: 100%; transform: translate3d(0px, 0px, 0px); content-visibility: visible;">
                                <defs>
                                    <clipPath id="__lottie_element_624">
                                        <rect width="48" height="48" x="0" y="0"></rect>
                                    </clipPath>
                                </defs>
                                <g clip-path="url(#__lottie_element_624)">
                                    <g transform="matrix(1.0000135898590088,0,0,1.0000135898590088,-0.00028385649784468114,-0.00028385649784468114)"
                                        opacity="1" style="display: block;">
                                        <g opacity="1" transform="matrix(1,0,0,1,24,24)">
                                            <path stroke-linecap="round" stroke-linejoin="round" fill-opacity="0"
                                                stroke="rgb(1,164,245)" stroke-opacity="1" stroke-width="3"
                                                d=" M0,18 C9.940999984741211,18 18,9.940999984741211 18,0 C18,-9.940999984741211 9.940999984741211,-18 0,-18 C-9.940999984741211,-18 -18,-9.940999984741211 -18,0 C-18,9.940999984741211 -9.940999984741211,18 0,18z">
                                            </path>
                                        </g>
                                    </g>
                                    <g transform="matrix(1.0000135898590088,0,0,1.0000135898590088,-0.00028385649784468114,-0.00028385649784468114)"
                                        opacity="1" style="display: block;">
                                        <g opacity="1"
                                            transform="matrix(1,0,0,1,18.993999481201172,25.969999313354492)">
                                            <path stroke-linecap="round" stroke-linejoin="round" fill-opacity="0"
                                                stroke="rgb(1,164,245)" stroke-opacity="1" stroke-width="3"
                                                d=" M5.00600004196167,-10 C5.00600004196167,-10 5.00600004196167,10 5.00600004196167,10 C5.00600004196167,10 -4.755000114440918,-6.709000110626221 -4.755000114440918,-6.709000110626221 C-4.923999786376953,-7.046000003814697 -5.005000114440918,-7.418000221252441 -4.993000030517578,-7.794000148773193 C-4.980000019073486,-8.168999671936035 -4.874000072479248,-8.53600025177002 -4.684000015258789,-8.861000061035156 C-4.49399995803833,-9.185999870300293 -4.224999904632568,-9.460000038146973 -3.9019999504089355,-9.659000396728516 C-3.5789999961853027,-9.857999801635742 -3.2109999656677246,-9.975000381469727 -2.8310000896453857,-10 C-2.8310000896453857,-10 5.00600004196167,-10 5.00600004196167,-10z">
                                            </path>
                                        </g>
                                        <g opacity="1"
                                            transform="matrix(1,0,0,1,29.006000518798828,25.969999313354492)">
                                            <path stroke-linecap="round" stroke-linejoin="round" fill-opacity="0"
                                                stroke="rgb(1,164,245)" stroke-opacity="1" stroke-width="3"
                                                d=" M-5.00600004196167,10 C-5.00600004196167,10 4.75600004196167,-6.709000110626221 4.75600004196167,-6.709000110626221 C4.923999786376953,-7.046000003814697 5.005000114440918,-7.418000221252441 4.993000030517578,-7.794000148773193 C4.980000019073486,-8.168999671936035 4.874000072479248,-8.53600025177002 4.684000015258789,-8.861000061035156 C4.49399995803833,-9.185999870300293 4.224999904632568,-9.460000038146973 3.9019999504089355,-9.659000396728516 C3.5789999961853027,-9.857999801635742 3.2109999656677246,-9.975000381469727 2.8310000896453857,-10 C2.8310000896453857,-10 -5.00600004196167,-10 -5.00600004196167,-10 C-5.00600004196167,-10 -5.00600004196167,10 -5.00600004196167,10z">
                                            </path>
                                        </g>
                                    </g>
                                </g>
                            </svg>