<svg width="24" height="24" viewBox="0 0 24 24" fill="none" xmlns="http://www.w3.org/2000/svg">
    <path d="M11 3C9.5 3 7.26472 4.00736 5.63604 5.63604C4.00736 7.26472 3 9.51472 3 12C3 14.4853 4.00736 16.7353 5.63604 18.364C7.26472 19.9926 9.51472 21 12 21C14.4853 21 16.7353 19.9926 18.364 18.364C19.9926 16.7353 21 14.5 21 12.5"
          stroke="currentColor" stroke-width="1.5" stroke-linecap="round"/>
    <path d="M14 3.2229C15.6824 3.60465 17.1857 4.45771 18.364 5.63592C19.5422 6.81414 20.3952 8.31751 20.777 9.99988"
          stroke="currentColor" stroke-width="1.5" stroke-linecap="round"/>
    <path d="M11 3V12.5H21" stroke="currentColor" stroke-width="1.5" stroke-linecap="round" stroke-linejoin="round"/>
    <path d="M14 3.5V10H20.5" stroke="currentColor" stroke-width="1.5" stroke-linecap="round" stroke-linejoin="round"/>
</svg>
